<?xml version="1.0" standalone="no"?>
<!DOCTYPE svg PUBLIC "-//W3C//DTD SVG 20010904//EN"
 "http://www.w3.org/TR/2001/REC-SVG-20010904/DTD/svg10.dtd">
<svg version="1.0" xmlns="http://www.w3.org/2000/svg"
 width="192.000000pt" height="192.000000pt" viewBox="0 0 192.000000 192.000000"
 preserveAspectRatio="xMidYMid meet">

<g transform="translate(0.000000,192.000000) scale(0.100000,-0.100000)"
fill="#000000" stroke="none">
<path d="M1173 1236 c-19 -42 -11 -86 16 -86 23 0 71 54 71 79 0 24 -20 41
-47 41 -17 0 -28 -10 -40 -34z"/>
<path d="M522 1098 c-15 -15 -15 -41 -1 -55 15 -15 -5 -93 -33 -129 -20 -25
-87 -64 -110 -64 -6 0 2 15 19 33 41 43 53 69 53 111 0 48 -8 65 -41 81 -36
19 -57 19 -93 0 -27 -14 -30 -14 -48 5 -10 11 -23 20 -29 20 -39 0 -122 -352
-98 -418 10 -26 36 -39 50 -25 6 6 19 66 30 134 21 132 47 201 84 225 18 12
28 13 44 4 44 -23 14 -121 -44 -145 -40 -17 -45 -37 -13 -59 42 -29 142 -13
190 31 19 17 18 17 34 -34 4 -16 36 -17 52 -1 7 7 12 35 12 64 0 90 8 114 40
114 l28 0 -15 -42 c-25 -72 -4 -138 44 -138 29 0 80 25 85 42 3 9 14 4 36 -13
55 -47 116 -46 182 1 35 25 105 28 96 4 -3 -9 -6 -19 -6 -24 0 -4 -20 -13 -44
-20 -72 -20 -106 -45 -106 -79 0 -41 40 -71 95 -71 52 0 88 30 106 88 9 31 23
47 60 72 27 17 51 35 54 40 3 5 16 -2 30 -16 20 -20 34 -24 80 -24 90 0 155
39 170 103 9 34 3 34 -44 -3 -50 -40 -98 -48 -131 -22 -20 17 -22 22 -11 35 7
9 26 19 42 22 78 17 117 96 64 131 -56 37 -160 -25 -184 -110 -9 -35 -64 -106
-82 -106 -4 0 1 33 12 73 24 94 24 129 -1 152 -28 25 -41 9 -65 -75 -28 -101
-83 -138 -77 -52 4 57 -11 75 -59 70 -63 -6 -88 -87 -42 -134 19 -19 11 -27
-26 -27 -45 0 -61 19 -61 70 0 36 6 50 29 74 16 16 40 29 53 29 31 0 68 11 68
20 0 4 -11 12 -25 18 -83 38 -188 -25 -209 -124 -7 -33 -60 -92 -69 -77 -4 5
1 40 10 76 13 52 14 72 5 92 -11 24 -12 24 -52 10 -35 -12 -42 -12 -53 1 -46
57 -62 65 -85 42z m863 -69 c7 -11 -31 -59 -47 -59 -13 0 -9 24 8 48 17 24 29
28 39 11z m-384 -86 c-9 -17 -10 -17 -16 0 -4 9 -4 25 0 35 6 16 7 16 16 0 7
-12 7 -24 0 -35z m49 -202 c0 -5 -8 -19 -18 -31 -16 -19 -22 -21 -40 -11 -30
16 -28 26 11 39 42 13 47 14 47 3z"/>
<path d="M1530 1070 c-17 -32 -8 -63 21 -77 46 -22 46 -57 -1 -115 -22 -28
-37 -54 -34 -59 11 -18 45 -8 69 18 l23 28 22 -28 c27 -34 71 -36 116 -5 34
24 64 66 64 92 0 23 -8 20 -53 -21 l-40 -36 -19 23 c-37 46 -35 68 16 119 51
52 56 66 24 77 -15 4 -26 1 -35 -12 -8 -11 -22 -29 -32 -42 l-17 -23 -24 38
c-31 47 -81 58 -100 23z"/>
</g>
</svg>
